# Tiled2Unity generated file. Do not modify by hand.
# Wavefront file for 'Room2_mesh_0003.obj'

# Vertices (Count = 440)
v -14 -12 0
v -15 -12 0
v -15 -11 0
v -14 -11 0
v -13 -12 0
v -14 -12 0
v -14 -11 0
v -13 -11 0
v -12 -12 0
v -13 -12 0
v -13 -11 0
v -12 -11 0
v -11 -12 0
v -12 -12 0
v -12 -11 0
v -11 -11 0
v -10 -12 0
v -11 -12 0
v -11 -11 0
v -10 -11 0
v -9 -12 0
v -10 -12 0
v -10 -11 0
v -9 -11 0
v -8 -12 0
v -9 -12 0
v -9 -11 0
v -8 -11 0
v -15 -13 0
v -16 -13 0
v -16 -12 0
v -15 -12 0
v -14 -13 0
v -15 -13 0
v -15 -12 0
v -14 -12 0
v -13 -13 0
v -14 -13 0
v -14 -12 0
v -13 -12 0
v -12 -13 0
v -13 -13 0
v -13 -12 0
v -12 -12 0
v -11 -13 0
v -12 -13 0
v -12 -12 0
v -11 -12 0
v -10 -13 0
v -11 -13 0
v -11 -12 0
v -10 -12 0
v -9 -13 0
v -10 -13 0
v -10 -12 0
v -9 -12 0
v -8 -13 0
v -9 -13 0
v -9 -12 0
v -8 -12 0
v -17 -14 0
v -18 -14 0
v -18 -13 0
v -17 -13 0
v -16 -14 0
v -17 -14 0
v -17 -13 0
v -16 -13 0
v -15 -14 0
v -16 -14 0
v -16 -13 0
v -15 -13 0
v -14 -14 0
v -15 -14 0
v -15 -13 0
v -14 -13 0
v -13 -14 0
v -14 -14 0
v -14 -13 0
v -13 -13 0
v -12 -14 0
v -13 -14 0
v -13 -13 0
v -12 -13 0
v -11 -14 0
v -12 -14 0
v -12 -13 0
v -11 -13 0
v -10 -14 0
v -11 -14 0
v -11 -13 0
v -10 -13 0
v -9 -14 0
v -10 -14 0
v -10 -13 0
v -9 -13 0
v -8 -14 0
v -9 -14 0
v -9 -13 0
v -8 -13 0
v -7 -14 0
v -8 -14 0
v -8 -13 0
v -7 -13 0
v -18 -15 0
v -19 -15 0
v -19 -14 0
v -18 -14 0
v -17 -15 0
v -18 -15 0
v -18 -14 0
v -17 -14 0
v -16 -15 0
v -17 -15 0
v -17 -14 0
v -16 -14 0
v -15 -15 0
v -16 -15 0
v -16 -14 0
v -15 -14 0
v -14 -15 0
v -15 -15 0
v -15 -14 0
v -14 -14 0
v -13 -15 0
v -14 -15 0
v -14 -14 0
v -13 -14 0
v -12 -15 0
v -13 -15 0
v -13 -14 0
v -12 -14 0
v -11 -15 0
v -12 -15 0
v -12 -14 0
v -11 -14 0
v -10 -15 0
v -11 -15 0
v -11 -14 0
v -10 -14 0
v -9 -15 0
v -10 -15 0
v -10 -14 0
v -9 -14 0
v -8 -15 0
v -9 -15 0
v -9 -14 0
v -8 -14 0
v -7 -15 0
v -8 -15 0
v -8 -14 0
v -7 -14 0
v -6 -15 0
v -7 -15 0
v -7 -14 0
v -6 -14 0
v -5 -15 0
v -6 -15 0
v -6 -14 0
v -5 -14 0
v -4 -15 0
v -5 -15 0
v -5 -14 0
v -4 -14 0
v -3 -15 0
v -4 -15 0
v -4 -14 0
v -3 -14 0
v -18 -16 0
v -19 -16 0
v -19 -15 0
v -18 -15 0
v -17 -16 0
v -18 -16 0
v -18 -15 0
v -17 -15 0
v -16 -16 0
v -17 -16 0
v -17 -15 0
v -16 -15 0
v -15 -16 0
v -16 -16 0
v -16 -15 0
v -15 -15 0
v -14 -16 0
v -15 -16 0
v -15 -15 0
v -14 -15 0
v -13 -16 0
v -14 -16 0
v -14 -15 0
v -13 -15 0
v -12 -16 0
v -13 -16 0
v -13 -15 0
v -12 -15 0
v -11 -16 0
v -12 -16 0
v -12 -15 0
v -11 -15 0
v -10 -16 0
v -11 -16 0
v -11 -15 0
v -10 -15 0
v -9 -16 0
v -10 -16 0
v -10 -15 0
v -9 -15 0
v -8 -16 0
v -9 -16 0
v -9 -15 0
v -8 -15 0
v -7 -16 0
v -8 -16 0
v -8 -15 0
v -7 -15 0
v -6 -16 0
v -7 -16 0
v -7 -15 0
v -6 -15 0
v -5 -16 0
v -6 -16 0
v -6 -15 0
v -5 -15 0
v -4 -16 0
v -5 -16 0
v -5 -15 0
v -4 -15 0
v -3 -16 0
v -4 -16 0
v -4 -15 0
v -3 -15 0
v -18 -17 0
v -19 -17 0
v -19 -16 0
v -18 -16 0
v -17 -17 0
v -18 -17 0
v -18 -16 0
v -17 -16 0
v -16 -17 0
v -17 -17 0
v -17 -16 0
v -16 -16 0
v -15 -17 0
v -16 -17 0
v -16 -16 0
v -15 -16 0
v -14 -17 0
v -15 -17 0
v -15 -16 0
v -14 -16 0
v -13 -17 0
v -14 -17 0
v -14 -16 0
v -13 -16 0
v -12 -17 0
v -13 -17 0
v -13 -16 0
v -12 -16 0
v -11 -17 0
v -12 -17 0
v -12 -16 0
v -11 -16 0
v -10 -17 0
v -11 -17 0
v -11 -16 0
v -10 -16 0
v -9 -17 0
v -10 -17 0
v -10 -16 0
v -9 -16 0
v -8 -17 0
v -9 -17 0
v -9 -16 0
v -8 -16 0
v -7 -17 0
v -8 -17 0
v -8 -16 0
v -7 -16 0
v -6 -17 0
v -7 -17 0
v -7 -16 0
v -6 -16 0
v -5 -17 0
v -6 -17 0
v -6 -16 0
v -5 -16 0
v -4 -17 0
v -5 -17 0
v -5 -16 0
v -4 -16 0
v -3 -17 0
v -4 -17 0
v -4 -16 0
v -3 -16 0
v -17 -18 0
v -18 -18 0
v -18 -17 0
v -17 -17 0
v -16 -18 0
v -17 -18 0
v -17 -17 0
v -16 -17 0
v -15 -18 0
v -16 -18 0
v -16 -17 0
v -15 -17 0
v -14 -18 0
v -15 -18 0
v -15 -17 0
v -14 -17 0
v -13 -18 0
v -14 -18 0
v -14 -17 0
v -13 -17 0
v -12 -18 0
v -13 -18 0
v -13 -17 0
v -12 -17 0
v -11 -18 0
v -12 -18 0
v -12 -17 0
v -11 -17 0
v -10 -18 0
v -11 -18 0
v -11 -17 0
v -10 -17 0
v -9 -18 0
v -10 -18 0
v -10 -17 0
v -9 -17 0
v -8 -18 0
v -9 -18 0
v -9 -17 0
v -8 -17 0
v -7 -18 0
v -8 -18 0
v -8 -17 0
v -7 -17 0
v -6 -18 0
v -7 -18 0
v -7 -17 0
v -6 -17 0
v -5 -18 0
v -6 -18 0
v -6 -17 0
v -5 -17 0
v -4 -18 0
v -5 -18 0
v -5 -17 0
v -4 -17 0
v -3 -18 0
v -4 -18 0
v -4 -17 0
v -3 -17 0
v -17 -19 0
v -18 -19 0
v -18 -18 0
v -17 -18 0
v -16 -19 0
v -17 -19 0
v -17 -18 0
v -16 -18 0
v -15 -19 0
v -16 -19 0
v -16 -18 0
v -15 -18 0
v -14 -19 0
v -15 -19 0
v -15 -18 0
v -14 -18 0
v -13 -19 0
v -14 -19 0
v -14 -18 0
v -13 -18 0
v -12 -19 0
v -13 -19 0
v -13 -18 0
v -12 -18 0
v -11 -19 0
v -12 -19 0
v -12 -18 0
v -11 -18 0
v -10 -19 0
v -11 -19 0
v -11 -18 0
v -10 -18 0
v -9 -19 0
v -10 -19 0
v -10 -18 0
v -9 -18 0
v -8 -19 0
v -9 -19 0
v -9 -18 0
v -8 -18 0
v -7 -19 0
v -8 -19 0
v -8 -18 0
v -7 -18 0
v -6 -19 0
v -7 -19 0
v -7 -18 0
v -6 -18 0
v -5 -19 0
v -6 -19 0
v -6 -18 0
v -5 -18 0
v -17 -20 0
v -18 -20 0
v -18 -19 0
v -17 -19 0
v -16 -20 0
v -17 -20 0
v -17 -19 0
v -16 -19 0
v -15 -20 0
v -16 -20 0
v -16 -19 0
v -15 -19 0
v -14 -20 0
v -15 -20 0
v -15 -19 0
v -14 -19 0
v -13 -20 0
v -14 -20 0
v -14 -19 0
v -13 -19 0
v -12 -20 0
v -13 -20 0
v -13 -19 0
v -12 -19 0
v -11 -20 0
v -12 -20 0
v -12 -19 0
v -11 -19 0
v -10 -20 0
v -11 -20 0
v -11 -19 0
v -10 -19 0

# Texture cooridinates (Count = 22)
vt 0.1 0.8055556
vt 0.125 0.8055556
vt 0.125 0.8333333
vt 0.1 0.8333333
vt 0.075 0.8055556
vt 0.075 0.8333333
vt 0.05 0.8055556
vt 0.05 0.8333333
vt 0.05 0.6944444
vt 0.075 0.6944444
vt 0.075 0.7222222
vt 0.05 0.7222222
vt 0.075 0.7777778
vt 0.1 0.7777778
vt 0.05 0.7777778
vt 0.1 0.6944444
vt 0.1 0.7222222
vt 0.125 0.7777778
vt 0.1 0.75
vt 0.125 0.75
vt 0.075 0.75
vt 0.05 0.75

# Normal
vn 0 0 -1

# Mesh description
g Room2_mesh_0003

# Faces
f 1/1/1 2/2/1 3/3/1 4/4/1
f 5/5/1 6/1/1 7/4/1 8/6/1
f 9/5/1 10/1/1 11/4/1 12/6/1
f 13/5/1 14/1/1 15/4/1 16/6/1
f 17/5/1 18/1/1 19/4/1 20/6/1
f 21/5/1 22/1/1 23/4/1 24/6/1
f 25/7/1 26/5/1 27/6/1 28/8/1
f 29/1/1 30/2/1 31/3/1 32/4/1
f 33/9/1 34/10/1 35/11/1 36/12/1
f 37/13/1 38/14/1 39/1/1 40/5/1
f 41/13/1 42/14/1 43/1/1 44/5/1
f 45/13/1 46/14/1 47/1/1 48/5/1
f 49/13/1 50/14/1 51/1/1 52/5/1
f 53/13/1 54/14/1 55/1/1 56/5/1
f 57/15/1 58/13/1 59/5/1 60/7/1
f 61/1/1 62/2/1 63/3/1 64/4/1
f 65/5/1 66/1/1 67/4/1 68/6/1
f 69/9/1 70/10/1 71/11/1 72/12/1
f 73/13/1 74/14/1 75/1/1 76/5/1
f 77/13/1 78/14/1 79/1/1 80/5/1
f 81/13/1 82/14/1 83/1/1 84/5/1
f 85/13/1 86/14/1 87/1/1 88/5/1
f 89/13/1 90/14/1 91/1/1 92/5/1
f 93/13/1 94/14/1 95/1/1 96/5/1
f 97/10/1 98/16/1 99/17/1 100/11/1
f 101/7/1 102/5/1 103/6/1 104/8/1
f 105/1/1 106/2/1 107/3/1 108/4/1
f 109/9/1 110/10/1 111/11/1 112/12/1
f 113/13/1 114/14/1 115/1/1 116/5/1
f 117/13/1 118/14/1 119/1/1 120/5/1
f 121/13/1 122/14/1 123/1/1 124/5/1
f 125/13/1 126/14/1 127/1/1 128/5/1
f 129/13/1 130/14/1 131/1/1 132/5/1
f 133/13/1 134/14/1 135/1/1 136/5/1
f 137/13/1 138/14/1 139/1/1 140/5/1
f 141/13/1 142/14/1 143/1/1 144/5/1
f 145/13/1 146/14/1 147/1/1 148/5/1
f 149/10/1 150/16/1 151/17/1 152/11/1
f 153/5/1 154/1/1 155/4/1 156/6/1
f 157/5/1 158/1/1 159/4/1 160/6/1
f 161/5/1 162/1/1 163/4/1 164/6/1
f 165/7/1 166/5/1 167/6/1 168/8/1
f 169/14/1 170/18/1 171/2/1 172/1/1
f 173/13/1 174/14/1 175/1/1 176/5/1
f 177/13/1 178/14/1 179/1/1 180/5/1
f 181/13/1 182/14/1 183/1/1 184/5/1
f 185/13/1 186/14/1 187/1/1 188/5/1
f 189/13/1 190/14/1 191/1/1 192/5/1
f 193/13/1 194/14/1 195/1/1 196/5/1
f 197/13/1 198/14/1 199/1/1 200/5/1
f 201/13/1 202/14/1 203/1/1 204/5/1
f 205/13/1 206/14/1 207/1/1 208/5/1
f 209/13/1 210/14/1 211/1/1 212/5/1
f 213/13/1 214/14/1 215/1/1 216/5/1
f 217/13/1 218/14/1 219/1/1 220/5/1
f 221/13/1 222/14/1 223/1/1 224/5/1
f 225/13/1 226/14/1 227/1/1 228/5/1
f 229/15/1 230/13/1 231/5/1 232/7/1
f 233/19/1 234/20/1 235/18/1 236/14/1
f 237/12/1 238/11/1 239/21/1 240/22/1
f 241/13/1 242/14/1 243/1/1 244/5/1
f 245/13/1 246/14/1 247/1/1 248/5/1
f 249/13/1 250/14/1 251/1/1 252/5/1
f 253/13/1 254/14/1 255/1/1 256/5/1
f 257/13/1 258/14/1 259/1/1 260/5/1
f 261/13/1 262/14/1 263/1/1 264/5/1
f 265/13/1 266/14/1 267/1/1 268/5/1
f 269/13/1 270/14/1 271/1/1 272/5/1
f 273/13/1 274/14/1 275/1/1 276/5/1
f 277/13/1 278/14/1 279/1/1 280/5/1
f 281/13/1 282/14/1 283/1/1 284/5/1
f 285/13/1 286/14/1 287/1/1 288/5/1
f 289/13/1 290/14/1 291/1/1 292/5/1
f 293/15/1 294/13/1 295/5/1 296/7/1
f 297/14/1 298/18/1 299/2/1 300/1/1
f 301/13/1 302/14/1 303/1/1 304/5/1
f 305/13/1 306/14/1 307/1/1 308/5/1
f 309/13/1 310/14/1 311/1/1 312/5/1
f 313/13/1 314/14/1 315/1/1 316/5/1
f 317/13/1 318/14/1 319/1/1 320/5/1
f 321/13/1 322/14/1 323/1/1 324/5/1
f 325/13/1 326/14/1 327/1/1 328/5/1
f 329/13/1 330/14/1 331/1/1 332/5/1
f 333/13/1 334/14/1 335/1/1 336/5/1
f 337/13/1 338/14/1 339/1/1 340/5/1
f 341/13/1 342/14/1 343/1/1 344/5/1
f 345/11/1 346/17/1 347/19/1 348/21/1
f 349/21/1 350/19/1 351/14/1 352/13/1
f 353/22/1 354/21/1 355/13/1 356/15/1
f 357/14/1 358/18/1 359/2/1 360/1/1
f 361/13/1 362/14/1 363/1/1 364/5/1
f 365/13/1 366/14/1 367/1/1 368/5/1
f 369/13/1 370/14/1 371/1/1 372/5/1
f 373/13/1 374/14/1 375/1/1 376/5/1
f 377/13/1 378/14/1 379/1/1 380/5/1
f 381/13/1 382/14/1 383/1/1 384/5/1
f 385/11/1 386/17/1 387/19/1 388/21/1
f 389/21/1 390/19/1 391/14/1 392/13/1
f 393/21/1 394/19/1 395/14/1 396/13/1
f 397/21/1 398/19/1 399/14/1 400/13/1
f 401/21/1 402/19/1 403/14/1 404/13/1
f 405/22/1 406/21/1 407/13/1 408/15/1
f 409/19/1 410/20/1 411/18/1 412/14/1
f 413/21/1 414/19/1 415/14/1 416/13/1
f 417/21/1 418/19/1 419/14/1 420/13/1
f 421/21/1 422/19/1 423/14/1 424/13/1
f 425/21/1 426/19/1 427/14/1 428/13/1
f 429/21/1 430/19/1 431/14/1 432/13/1
f 433/21/1 434/19/1 435/14/1 436/13/1
f 437/22/1 438/21/1 439/13/1 440/15/1

